<svg width="16" height="16" viewBox="0 0 16 16" fill="none" xmlns="http://www.w3.org/2000/svg">
<path fill-rule="evenodd" clip-rule="evenodd" d="M8.0007 0.5C5.96381 0.5 5.70818 0.508906 4.90817 0.545313C4.10972 0.581875 3.56472 0.708281 3.08784 0.89375C2.59455 1.08531 2.17611 1.34156 1.75923 1.75859C1.34204 2.17547 1.08579 2.59391 0.893598 3.08703C0.707658 3.56406 0.581095 4.10922 0.545157 4.90734C0.509375 5.70734 0.5 5.96313 0.5 8C0.5 10.0369 0.509063 10.2917 0.545313 11.0917C0.582032 11.8902 0.70844 12.4352 0.893754 12.912C1.08547 13.4053 1.34173 13.8238 1.75876 14.2406C2.17549 14.6578 2.59393 14.9147 3.0869 15.1063C3.56409 15.2917 4.10926 15.4181 4.90755 15.4547C5.70755 15.4911 5.96303 15.5 7.99977 15.5C10.0368 15.5 10.2917 15.4911 11.0917 15.4547C11.8901 15.4181 12.4357 15.2917 12.9129 15.1063C13.4061 14.9147 13.8239 14.6578 14.2406 14.2406C14.6578 13.8238 14.9141 13.4053 15.1062 12.9122C15.2906 12.4352 15.4172 11.89 15.4547 11.0919C15.4906 10.2919 15.5 10.0369 15.5 8C15.5 5.96313 15.4906 5.7075 15.4547 4.9075C15.4172 4.10906 15.2906 3.56406 15.1062 3.08719C14.9141 2.59391 14.6578 2.17547 14.2406 1.75859C13.8234 1.34141 13.4062 1.08516 12.9125 0.89375C12.4343 0.708281 11.889 0.581875 11.0906 0.545313C10.2906 0.508906 10.0359 0.5 7.99836 0.5H8.0007ZM7.32785 1.85154C7.52754 1.85123 7.75036 1.85154 8.00067 1.85154C10.0032 1.85154 10.2405 1.85873 11.0313 1.89467C11.7626 1.9281 12.1595 2.05029 12.4238 2.15295C12.7738 2.28889 13.0234 2.45139 13.2857 2.71389C13.5482 2.97639 13.7107 3.22639 13.847 3.57639C13.9496 3.84045 14.072 4.23732 14.1053 4.96857C14.1412 5.7592 14.149 5.9967 14.149 7.99826C14.149 9.99982 14.1412 10.2373 14.1053 11.0279C14.0718 11.7592 13.9496 12.1561 13.847 12.4201C13.711 12.7701 13.5482 13.0194 13.2857 13.2817C13.0232 13.5442 12.774 13.7067 12.4238 13.8426C12.1598 13.9458 11.7626 14.0676 11.0313 14.1011C10.2407 14.137 10.0032 14.1448 8.00067 14.1448C5.99799 14.1448 5.76065 14.137 4.97001 14.1011C4.23876 14.0673 3.84188 13.9451 3.57734 13.8425C3.22734 13.7065 2.97734 13.544 2.71483 13.2815C2.45233 13.019 2.28983 12.7697 2.15358 12.4195C2.05092 12.1554 1.92858 11.7586 1.89529 11.0273C1.85936 10.2367 1.85217 9.9992 1.85217 7.99639C1.85217 5.99357 1.85936 5.75732 1.89529 4.9667C1.92873 4.23545 2.05092 3.83857 2.15358 3.5742C2.28952 3.2242 2.45233 2.9742 2.71483 2.7117C2.97734 2.4492 3.22734 2.2867 3.57734 2.15045C3.84172 2.04732 4.23876 1.92545 4.97001 1.89185C5.6619 1.8606 5.93002 1.85123 7.32785 1.84967V1.85154ZM12.0042 3.09686C11.5073 3.09686 11.1041 3.49951 11.1041 3.99654C11.1041 4.49342 11.5073 4.89654 12.0042 4.89654C12.501 4.89654 12.9042 4.49342 12.9042 3.99654C12.9042 3.49967 12.501 3.09686 12.0042 3.09686ZM8.00072 4.14842C5.87366 4.14842 4.14911 5.87295 4.14911 7.99998C4.14911 10.127 5.87366 11.8508 8.00072 11.8508C10.1278 11.8508 11.8517 10.127 11.8517 7.99998C11.8517 5.87295 10.1278 4.14842 8.00072 4.14842ZM8.00069 5.49998C9.38133 5.49998 10.5007 6.6192 10.5007 7.99998C10.5007 9.38061 9.38133 10.5 8.00069 10.5C6.61989 10.5 5.50066 9.38061 5.50066 7.99998C5.50066 6.6192 6.61989 5.49998 8.00069 5.49998Z" fill="white"/>
</svg>
