<svg width="16" height="12" viewBox="0 0 16 12" fill="none" xmlns="http://www.w3.org/2000/svg">
<path fill-rule="evenodd" clip-rule="evenodd" d="M13.8603 1.08587C14.5057 1.27068 15.014 1.81521 15.1865 2.50672C15.5 3.76001 15.5 6.375 15.5 6.375C15.5 6.375 15.5 8.9899 15.1865 10.2433C15.014 10.9348 14.5057 11.4793 13.8603 11.6642C12.6907 12 8 12 8 12C8 12 3.30935 12 2.1396 11.6642C1.49418 11.4793 0.985881 10.9348 0.813381 10.2433C0.5 8.9899 0.5 6.375 0.5 6.375C0.5 6.375 0.5 3.76001 0.813381 2.50672C0.985881 1.81521 1.49418 1.27068 2.1396 1.08587C3.30935 0.75 8 0.75 8 0.75C8 0.75 12.6907 0.75 13.8603 1.08587ZM6.59376 4.17386V9.06517L10.3438 6.61961L6.59376 4.17386Z" fill="white"/>
</svg>
